name Run_300 01_newCOP3_v24.mot
datacolumns 19
datarows 22
range 2.70833300 2.73020800
endheader
                time	   R_ground_force_vx	   R_ground_force_vy	   R_ground_force_vz	   R_ground_force_px	   R_ground_force_py	   R_ground_force_pz	   L_ground_force_vx	   L_ground_force_vy	   L_ground_force_vz	   L_ground_force_px	   L_ground_force_py	   L_ground_force_pz	   R_ground_torque_x	   R_ground_torque_y	   R_ground_torque_z	   L_ground_torque_x	   L_ground_torque_y	   L_ground_torque_z	
          2.70833300	          0.00000000	          0.00000000	          0.00000000	          0.00000000	          0.00000000	          0.00000000	         -9.57039900	         30.00825100	          1.40304700	          1.36054300	          0.00000000	         -0.35374200	          0.00000000	          0.00000000	          0.00000000	         -0.00000000	          0.11506600	         -0.00000000	
          2.70937500	          0.00000000	          0.00000000	          0.00000000	          0.00000000	          0.00000000	          0.00000000	        -11.07121800	         34.69453800	          1.77650200	          1.35805500	          0.00000000	         -0.35671400	          0.00000000	          0.00000000	          0.00000000	          0.00000000	         -0.11305200	          0.00000000	
          2.71041700	          0.00000000	          0.00000000	          0.00000000	          0.00000000	          0.00000000	          0.00000000	        -12.77805700	         40.01060100	          2.21302700	          1.35604900	          0.00000000	         -0.35895200	          0.00000000	          0.00000000	          0.00000000	          0.00000000	         -0.34953700	          0.00000000	
          2.71145800	          0.00000000	          0.00000000	          0.00000000	          0.00000000	          0.00000000	          0.00000000	        -14.70526400	         46.00917100	          2.71872700	          1.35444500	          0.00000000	         -0.36057500	          0.00000000	          0.00000000	          0.00000000	          0.00000000	         -0.59362600	          0.00000000	
          2.71250000	          0.00000000	          0.00000000	          0.00000000	          0.00000000	          0.00000000	          0.00000000	        -16.86551900	         52.74185600	          3.29961500	          1.35317400	          0.00000000	         -0.36168500	          0.00000000	          0.00000000	          0.00000000	          0.00000000	         -0.84449700	          0.00000000	
          2.71354200	          0.00000000	          0.00000000	          0.00000000	          0.00000000	          0.00000000	          0.00000000	        -19.26927000	         60.25802200	          3.96149500	          1.35217300	          0.00000000	         -0.36237200	          0.00000000	          0.00000000	          0.00000000	          0.00000000	         -1.10127200	          0.00000000	
          2.71458300	          0.00000000	          0.00000000	          0.00000000	          0.00000000	          0.00000000	          0.00000000	        -21.92415200	         68.60356100	          4.70982200	          1.35139100	          0.00000000	         -0.36270900	          0.00000000	          0.00000000	          0.00000000	          0.00000000	         -1.36301600	          0.00000000	
          2.71562500	          0.00000000	          0.00000000	          0.00000000	          0.00000000	          0.00000000	          0.00000000	        -24.83437500	         77.81965600	          5.54956100	          1.35078300	          0.00000000	         -0.36276000	          0.00000000	          0.00000000	          0.00000000	          0.00000000	         -1.62874600	          0.00000000	
          2.71666700	          0.00000000	          0.00000000	          0.00000000	          0.00000000	          0.00000000	          0.00000000	        -28.00013900	         87.94152100	          6.48503400	          1.35030800	          0.00000000	         -0.36257700	          0.00000000	          0.00000000	          0.00000000	          0.00000000	         -1.89742800	          0.00000000	
          2.71770800	          0.00000000	          0.00000000	          0.00000000	          0.00000000	          0.00000000	          0.00000000	        -31.41706300	         98.99722300	          7.51975900	          1.34993400	          0.00000000	         -0.36220200	          0.00000000	          0.00000000	          0.00000000	          0.00000000	         -2.16798200	          0.00000000	
          2.71875000	          0.00000000	          0.00000000	          0.00000000	          0.00000000	          0.00000000	          0.00000000	        -35.07569500	        111.00664500	          8.65628600	          1.34963100	          0.00000000	         -0.36167300	          0.00000000	          0.00000000	          0.00000000	          0.00000000	         -2.43928700	          0.00000000	
          2.71979200	          0.00000000	          0.00000000	          0.00000000	          0.00000000	          0.00000000	          0.00000000	        -38.96110200	        123.98058300	          9.89604300	          1.34937300	          0.00000000	         -0.36101900	          0.00000000	          0.00000000	          0.00000000	          0.00000000	         -2.71018500	          0.00000000	
          2.72083300	          0.00000000	          0.00000000	          0.00000000	          0.00000000	          0.00000000	          0.00000000	        -43.05258900	        137.92012000	         11.23916900	          1.34913600	          0.00000000	         -0.36026400	          0.00000000	          0.00000000	          0.00000000	          0.00000000	         -2.97948300	          0.00000000	
          2.72187500	          0.00000000	          0.00000000	          0.00000000	          0.00000000	          0.00000000	          0.00000000	        -47.32357000	        152.81629900	         12.68437800	          1.34889900	          0.00000000	         -0.35942900	          0.00000000	          0.00000000	          0.00000000	          0.00000000	         -3.24596200	          0.00000000	
          2.72291700	          0.00000000	          0.00000000	          0.00000000	          0.00000000	          0.00000000	          0.00000000	        -51.74160800	        168.65008500	         14.22880900	          1.34864200	          0.00000000	         -0.35853100	          0.00000000	          0.00000000	          0.00000000	          0.00000000	         -3.50838100	          0.00000000	
          2.72395800	          0.00000000	          0.00000000	          0.00000000	          0.00000000	          0.00000000	          0.00000000	        -56.26866900	        185.39268500	         15.86792400	          1.34834600	          0.00000000	         -0.35758400	          0.00000000	          0.00000000	          0.00000000	          0.00000000	         -3.76548100	          0.00000000	
          2.72500000	          0.00000000	          0.00000000	          0.00000000	          0.00000000	          0.00000000	          0.00000000	        -60.86158800	        203.00633200	         17.59540600	          1.34799100	          0.00000000	         -0.35659900	          0.00000000	          0.00000000	          0.00000000	          0.00000000	         -4.01599400	          0.00000000	
          2.72604200	          0.00000000	          0.00000000	          0.00000000	          0.00000000	          0.00000000	          0.00000000	        -65.47275500	        221.44525100	         19.40309100	          1.34756000	          0.00000000	         -0.35558700	          0.00000000	          0.00000000	          0.00000000	          0.00000000	         -4.25864700	          0.00000000	
          2.72708300	          0.00000000	          0.00000000	          0.00000000	          0.00000000	          0.00000000	          0.00000000	        -70.05104800	        240.65707400	         21.28094900	          1.34703400	          0.00000000	         -0.35455700	          0.00000000	          0.00000000	          0.00000000	          0.00000000	         -4.49217300	          0.00000000	
          2.72812500	          0.00000000	          0.00000000	          0.00000000	          0.00000000	          0.00000000	          0.00000000	        -74.54297600	        260.58450300	         23.21707000	          1.34639400	          0.00000000	         -0.35351500	          0.00000000	          0.00000000	          0.00000000	          0.00000000	         -4.71531200	          0.00000000	
          2.72916700	          0.00000000	          0.00000000	          0.00000000	          0.00000000	          0.00000000	          0.00000000	        -78.89405100	        281.16705300	         25.19771600	          1.34562400	          0.00000000	         -0.35246900	          0.00000000	          0.00000000	          0.00000000	          0.00000000	         -4.92682300	          0.00000000	
          2.73020800	          0.00000000	          0.00000000	          0.00000000	          0.00000000	          0.00000000	          0.00000000	        -83.05025500	        302.34310900	         27.20740700	          1.34470600	          0.00000000	         -0.35142500	          0.00000000	          0.00000000	          0.00000000	          0.00000000	         -5.12549300	          0.00000000	
